PathFileType	4	(X/Y/Z)	Patient4_TMGait_0pt6_02_left_34.trc.trc
DataRate	CameraRate	NumFrames	NumMarkers	Units	OrigDataRate	OrigDataStartFrame	OrigNumFrames
82.352941176470	82.352941176470	6	33	mm	82.352941176470	89	       141
Frame#	Time	Sacral			L.Shoulder			Chest			R.Shoulder			Neck			R.ASIS			L.ASIS			R.Thigh.Superior			R.Thigh.Lateral			R.Thigh.Inferior			R.Patella			L.Thigh.Superior			L.Thigh.Lateral			L.Thigh.Inferior			L.Patella			L.Shank.Superior			L.Shank.Lateral			L.Shank.Inferior			R.Shank.Superior			R.Shank.Lateral			R.Shank.Inferior			R.Heel			R.Midfoot.Superior			R.Midfoot.Lateral			R.Toe			L.Heel			L.Midfoot.Lateral			L.Midfoot.Superior			L.Toe			L.Elbow			L.Wrist			R.Elbow			R.Wrist			
		X1	Y1	Z1	X2	Y2	Z2	X3	Y3	Z3	X4	Y4	Z4	X5	Y5	Z5	X6	Y6	Z6	X7	Y7	Z7	X8	Y8	Z8	X9	Y9	Z9	X10	Y10	Z10	X11	Y11	Z11	X12	Y12	Z12	X13	Y13	Z13	X14	Y14	Z14	X15	Y15	Z15	X16	Y16	Z16	X17	Y17	Z17	X18	Y18	Z18	X19	Y19	Z19	X20	Y20	Z20	X21	Y21	Z21	X22	Y22	Z22	X23	Y23	Z23	X24	Y24	Z24	X25	Y25	Z25	X26	Y26	Z26	X27	Y27	Z27	X28	Y28	Z28	X29	Y29	Z29	X30	Y30	Z30	X31	Y31	Z31	X32	Y32	Z32	X33	Y33	Z33	

89	42.568571428571	832.099709583051	1010.138482475060	495.691096513237	1016.530495883238	1434.131597307944	306.912004434439	1121.471847861080	1360.735952244589	464.147472628044	1044.864045745531	1439.896652005911	637.503525226169	1018.435259606927	1494.366577556387	457.301697158446	1063.514722322002	941.435581889280	601.981003339177	1035.212035788630	962.218297482456	329.392872827821	1114.449441555696	746.354960314827	566.910697475530	1043.044984031511	634.469512047293	630.690207474484	1117.480326508589	587.066239840307	544.355244530791	1124.106098622377	499.375214374322	549.839614127242	1078.750578019954	746.694421410003	348.870047575489	990.013146790396	632.599290697555	286.914045004756	1079.148387687688	547.390869538329	340.169180520569	1071.284172625615	461.566700677170	337.555590861284	1002.465898189280	404.696231402300	335.122358103319	860.797405319607	360.298479963700	292.227314684329	849.706976933443	232.465276889429	350.026152757948	1102.032036671790	410.262501969609	560.793953565642	1040.525697023184	302.712352401309	626.024139551250	1085.816356174819	210.341009243311	561.737389125244	961.135338008938	42.366189159827	537.161708399397	1132.311223886370	97.627828517972	565.591223315210	1047.108708333356	37.162754260047	608.752705109222	1254.463039671451	46.491199111156	589.500211869786	660.883004668009	168.661149826468	395.082891618193	715.465321904684	119.350750844699	315.934884410368	820.014520216700	127.303104069058	333.967217205993	896.201916165614	30.233325194913	310.982202778048	1043.148328623061	1086.765425443294	181.990868428169	1281.670533192028	983.470105853795	200.688165726620	971.646509679147	1100.901893491928	763.936927580907	1027.905555395351	845.607547144457	740.248246211330	
90	42.580714285714	832.068593791713	1010.447489485765	498.918416919338	1014.531455363698	1434.545880083645	308.655306084321	1121.278190769988	1360.927077568924	464.648761835677	1046.676523806699	1439.808836105222	639.009116606093	1018.250857377623	1494.639928347481	459.234824247573	1063.962453990146	942.013633978471	603.089437516549	1034.399075118453	962.351575773104	330.561993014036	1112.630560584744	745.458204095560	569.086063014724	1040.068094101889	634.450763303621	632.720610565965	1113.623922278290	586.346338366022	546.039008755364	1119.228623407855	498.754054677898	551.340926265979	1082.930724068065	749.585619093523	350.851311478092	999.029511398027	633.427774095466	287.562036449810	1090.737909214807	550.358176931255	340.945287545867	1084.366644250873	463.429677690149	337.673712317017	1014.039557053914	406.443803304494	335.239180513988	870.893773008012	366.451463193777	292.529801191573	856.122672757002	238.842761436363	349.942156546959	1096.793603770352	409.784273396857	562.045771677919	1034.825760502308	302.344977470970	626.943952364038	1079.434770202005	209.978165925128	562.239609788131	953.876992197376	42.345298470917	537.266731453022	1125.077925528941	97.525002671182	565.654781517571	1039.833808227946	37.106623670103	608.872280882292	1247.281656956099	45.989990323325	589.625582417935	665.661764946772	184.201965684298	395.219588703459	717.295671589223	131.547426323317	316.051517062473	822.418720311154	133.199413543911	333.910740471028	892.025927508197	29.370922359717	310.905568394759	1037.011141719767	1085.473275511328	186.050535877167	1269.608511183245	967.630846836333	201.877720401680	983.083165628523	1099.432880232168	767.886885417378	1052.332621446494	847.621813273515	741.460328968791	
91	42.592857142857	831.859159651718	1010.683593123740	501.975938768348	1012.432703413232	1434.728833232741	310.185229413770	1120.967659981441	1360.972574989535	464.975317081559	1048.341566600549	1439.631786315197	640.308093361196	1017.970126536847	1494.780497749529	460.912148880576	1064.201890618765	942.408445544036	604.222650070229	1033.794227322167	962.473600156518	331.649259272050	1110.881326546870	744.623800275063	571.266923982837	1037.215881539799	634.376202226805	634.677918691352	1110.028398128310	585.649261799659	547.751472740290	1114.635623923444	498.124024023583	552.870923519927	1086.834612231005	752.664862980247	352.964795203794	1007.781492079577	634.699641778541	288.148658765069	1101.833235998318	553.848012255932	341.807447713544	1097.133554964077	465.919659206424	337.898130682125	1025.585380568586	408.659823084046	335.391501066373	881.228779901157	372.564682849998	292.852232700334	863.246261829931	245.220628929165	349.970351060498	1091.787282008720	409.270635080895	563.268449209499	1029.304463076816	301.984336836708	627.859840348446	1073.151354142073	209.587202898413	562.735442178496	946.585844939449	42.357644315341	537.390337066335	1117.869639812382	97.394601687066	565.795616499336	1032.532731632202	37.055042369844	608.998981497012	1240.082683950728	45.423439885255	589.750092500336	671.672885983627	198.723287290572	395.534740790338	720.528891481729	143.263247350083	316.272837291704	825.973076432642	139.289352981121	333.926129584440	889.471860250477	28.998673168611	310.706845041857	1030.986706347256	1083.970974629230	190.084266343830	1256.226831739026	951.340151804585	202.952426121309	994.719466294496	1098.220089641991	771.660341962019	1077.157679918621	850.772825263988	742.217342779302	
92	42.605000000000	831.467419115180	1010.896293428949	504.850331258884	1010.312395068590	1434.714002362408	311.505182123846	1120.562067362617	1360.908122130719	465.161089228712	1049.855897573983	1439.443694580808	641.396767877831	1017.632769519980	1494.832859906085	462.318504769532	1064.244406926314	942.656879287186	605.408545789322	1033.349683209781	962.659000501284	332.688557747865	1109.225641074544	743.874700901667	573.400295490737	1034.493692525749	634.264200376583	636.509025603850	1106.704060405523	584.986572446893	549.440336743698	1110.339532397258	497.491863671368	554.358620382533	1090.393392651847	755.951808782835	355.180242756697	1016.114618133574	636.443181371968	288.681423796149	1112.305438811766	557.856850990533	342.701854998522	1109.449902647821	469.039669797482	338.146717600478	1036.975072690741	411.342713090218	335.532389399816	891.653203628576	378.493897453731	293.199138997739	871.077496657249	251.386837847316	350.072426163812	1087.019873105988	408.739513802653	564.416716966364	1023.963841258403	301.658327061260	628.738970076562	1066.968076202888	209.188310472756	563.206592581150	939.275299960250	42.405586116992	537.532671596219	1110.690777868214	97.258690349335	566.003390750169	1025.219557781871	37.016287994967	609.131695056560	1232.872951490126	44.833538091545	589.877598733897	678.847388436510	211.605711164022	396.017397407663	725.256394519546	153.966680127254	316.579208372973	830.837826578269	145.316333640122	333.961835242749	889.039473975283	29.241519954111	310.348349198355	1025.086403210552	1082.314452323131	194.097597666127	1241.417791944431	934.828310631982	203.922542365517	1006.539161027092	1097.334005156956	775.175515909327	1102.242640999629	855.192952724135	742.459199402831	
93	42.617142857143	830.900788937489	1011.128065080220	507.542513710534	1008.239826795043	1434.543746757920	312.630259364034	1120.086379665303	1360.772781384315	465.243247347104	1051.227327448177	1439.316775956708	642.282397295635	1017.275135633443	1494.840446784232	463.455740048963	1064.110303282824	942.799685145867	606.656095231585	1032.958317386374	962.951127709877	333.723692302993	1107.653734392737	743.214992018425	575.436434866747	1031.875355448767	634.131854928833	638.173698588523	1103.611421018072	584.361957854941	551.055736124427	1106.303047399673	496.862221647515	555.743556302631	1093.556852288771	759.454383173153	357.444596859302	1023.902194974755	638.655984188344	289.161662172807	1122.064333158913	562.356611206983	343.563557205818	1121.208664209520	472.771364078325	338.341257501705	1048.113788485026	414.466521107357	335.613313370587	902.052820768580	384.075606094406	293.562801866425	879.640440390225	257.114326503886	350.197428233208	1082.457303648160	408.207578303750	565.455380866055	1018.773739693735	301.386894700084	629.553732060326	1060.868609822876	208.800489558988	563.638249324955	931.956141535860	42.487353515114	537.690380668373	1103.536427201744	97.130790499136	566.255190070949	1017.904816281908	36.994781481908	609.267386621598	1225.656773360265	44.255896256633	590.010282801339	687.129584797223	222.288526874352	396.635999969861	731.563610824289	163.155882821034	316.932729151933	837.177107403492	150.995800545568	333.958286407607	891.205293072139	30.141892284924	309.784477189850	1019.301066023804	1080.573895012946	198.088453677047	1225.102980925073	918.369017254591	204.806090296904	1018.504863891288	1096.841274408358	778.360285819787	1127.438819613515	860.998738880692	742.133608541474	
94	42.629285714286	830.176736320495	1011.411787066500	510.063125158373	1006.269912810001	1434.263865421284	313.584580677751	1119.567622954735	1360.603068634738	465.257244197431	1052.474683634798	1439.307097546246	642.981912190828	1016.928888177401	1494.840329640061	464.341457288806	1063.825106928274	942.876313819655	607.956465230820	1032.462141442148	963.348652412238	334.804568200836	1106.125436890858	742.635960747762	577.325647982348	1029.314532203606	633.994811712727	639.647225793016	1100.673288277870	583.772752523210	552.554127518095	1102.451595774876	496.238955130071	556.982787811079	1096.293718188140	763.165553915541	359.686824760227	1031.049253430149	641.304077700715	289.585929427581	1131.053694586972	567.294754316460	344.327164421703	1132.328421905339	477.074511193721	338.418042928065	1058.938207648014	417.981720598738	335.591325162117	912.351536482156	389.135352899651	293.923262403153	888.976825348505	262.177941025792	350.287249378282	1078.035278177718	407.689105965878	566.363188721955	1013.680881366101	301.181392846966	630.285509839851	1054.823748262798	208.439683749548	564.021003572513	924.635803669589	42.597894817548	537.857974188140	1096.396962501515	97.018176485304	566.525613036255	1010.594726348736	36.991446244626	609.402111603378	1218.435893851911	43.717216723073	590.148717054949	696.491848317473	230.319954442646	397.341382594619	739.524683359437	170.404303731882	317.279907042255	845.140394552149	156.038767279695	333.850636508605	896.358728727771	31.637634754430	308.959886630847	1013.599948509181	1078.823690174387	202.042531043447	1207.252398734921	902.271340251768	205.628037558925	1030.558039562040	1096.793089158811	781.156633421376	1152.585354707946	868.279546724477	741.201351556143	
